{
	"patcher" : 	{
		"fileversion" : 1,
		"appversion" : 		{
			"major" : 7,
			"minor" : 3,
			"revision" : 4,
			"architecture" : "x64",
			"modernui" : 1
		}
,
		"rect" : [ 678.0, 277.0, 160.0, 157.0 ],
		"bglocked" : 0,
		"openinpresentation" : 0,
		"default_fontsize" : 12.0,
		"default_fontface" : 0,
		"default_fontname" : "Arial",
		"gridonopen" : 1,
		"gridsize" : [ 15.0, 15.0 ],
		"gridsnaponopen" : 1,
		"objectsnaponopen" : 1,
		"statusbarvisible" : 2,
		"toolbarvisible" : 0,
		"lefttoolbarpinned" : 0,
		"toptoolbarpinned" : 0,
		"righttoolbarpinned" : 0,
		"bottomtoolbarpinned" : 0,
		"toolbars_unpinned_last_save" : 0,
		"tallnewobj" : 0,
		"boxanimatetime" : 200,
		"enablehscroll" : 1,
		"enablevscroll" : 1,
		"devicewidth" : 0.0,
		"description" : "",
		"digest" : "",
		"tags" : "",
		"style" : "",
		"subpatcher_template" : "",
		"boxes" : [ 			{
				"box" : 				{
					"id" : "obj-20",
					"maxclass" : "comment",
					"numinlets" : 1,
					"numoutlets" : 0,
					"patching_rect" : [ 242.0, 47.0, 150.0, 20.0 ],
					"presentation" : 1,
					"presentation_rect" : [ 109.0, 74.666664, 36.0, 20.0 ],
					"style" : "",
					"text" : "time"
				}

			}
, 			{
				"box" : 				{
					"id" : "obj-4",
					"maxclass" : "newobj",
					"numinlets" : 1,
					"numoutlets" : 2,
					"outlettype" : [ "jit_gl_texture", "" ],
					"patcher" : 					{
						"fileversion" : 1,
						"appversion" : 						{
							"major" : 7,
							"minor" : 3,
							"revision" : 4,
							"architecture" : "x64",
							"modernui" : 1
						}
,
						"rect" : [ 38.0, 97.0, 664.0, 803.0 ],
						"editing_bgcolor" : [ 0.9, 0.9, 0.9, 1.0 ],
						"bglocked" : 0,
						"openinpresentation" : 0,
						"default_fontsize" : 12.0,
						"default_fontface" : 0,
						"default_fontname" : "Arial",
						"gridonopen" : 1,
						"gridsize" : [ 15.0, 15.0 ],
						"gridsnaponopen" : 1,
						"objectsnaponopen" : 1,
						"statusbarvisible" : 2,
						"toolbarvisible" : 1,
						"lefttoolbarpinned" : 0,
						"toptoolbarpinned" : 0,
						"righttoolbarpinned" : 0,
						"bottomtoolbarpinned" : 0,
						"toolbars_unpinned_last_save" : 0,
						"tallnewobj" : 0,
						"boxanimatetime" : 200,
						"enablehscroll" : 1,
						"enablevscroll" : 1,
						"devicewidth" : 0.0,
						"description" : "",
						"digest" : "",
						"tags" : "",
						"style" : "",
						"subpatcher_template" : "",
						"boxes" : [ 							{
								"box" : 								{
									"id" : "obj-9",
									"maxclass" : "newobj",
									"numinlets" : 1,
									"numoutlets" : 1,
									"outlettype" : [ "" ],
									"patching_rect" : [ 193.0, 79.0, 100.0, 22.0 ],
									"style" : ""
								}

							}
, 							{
								"box" : 								{
									"id" : "obj-7",
									"maxclass" : "newobj",
									"numinlets" : 0,
									"numoutlets" : 1,
									"outlettype" : [ "" ],
									"patching_rect" : [ 401.0, 89.0, 100.0, 22.0 ],
									"style" : "",
									"text" : "param iter 50"
								}

							}
, 							{
								"box" : 								{
									"id" : "obj-5",
									"maxclass" : "newobj",
									"numinlets" : 0,
									"numoutlets" : 1,
									"outlettype" : [ "" ],
									"patching_rect" : [ 476.0, 39.5, 100.0, 22.0 ],
									"style" : "",
									"text" : "param x0 1.5"
								}

							}
, 							{
								"box" : 								{
									"id" : "obj-3",
									"maxclass" : "newobj",
									"numinlets" : 0,
									"numoutlets" : 1,
									"outlettype" : [ "" ],
									"patching_rect" : [ 470.0, 9.0, 100.0, 22.0 ],
									"style" : "",
									"text" : "param x2 1.2507"
								}

							}
, 							{
								"box" : 								{
									"id" : "obj-6",
									"maxclass" : "newobj",
									"numinlets" : 0,
									"numoutlets" : 1,
									"outlettype" : [ "" ],
									"patching_rect" : [ 61.0, 33.0, 100.0, 22.0 ],
									"style" : "",
									"text" : "param zoom 5."
								}

							}
, 							{
								"box" : 								{
									"id" : "obj-12",
									"linecount" : 2,
									"maxclass" : "newobj",
									"numinlets" : 0,
									"numoutlets" : 1,
									"outlettype" : [ "" ],
									"patching_rect" : [ 265.0, 33.0, 112.0, 35.0 ],
									"style" : "",
									"text" : "param center 0.5 1. 1."
								}

							}
, 							{
								"box" : 								{
									"id" : "obj-2",
									"maxclass" : "newobj",
									"numinlets" : 0,
									"numoutlets" : 1,
									"outlettype" : [ "" ],
									"patching_rect" : [ 163.0, 33.0, 100.0, 22.0 ],
									"style" : "",
									"text" : "param time 0.1"
								}

							}
, 							{
								"box" : 								{
									"code" : "// Sine Puke II, by WAHa.06x36.\n// Same as my original Sine Puke, but with more rainbow, and less \"newp\".\n\n// Based on code by Spektre posted at http://stackoverflow.com/questions/3407942/rgb-values-of-visible-spectrum\n spectral_colour( l) // RGB <0,1> <- lambda l <400,700> [nm]\n{\nr=0.0;\r\ng=0.0;\r\nb=0.0;\n         if ((l>=400.0)&&(l<410.0)) \r\n{  t=(l-400.0)/(410.0-400.0); \r\nr=    (0.33*t)-(0.20*t*t); }\n    else if ((l>=410.0)&&(l<475.0)) {  t=(l-410.0)/(475.0-410.0); r=0.14         -(0.13*t*t); }\n    else if ((l>=545.0)&&(l<595.0)) {  t=(l-545.0)/(595.0-545.0); r=    (1.98*t)-(     t*t); }\n    else if ((l>=595.0)&&(l<650.0)) {  t=(l-595.0)/(650.0-595.0); r=0.98+(0.06*t)-(0.40*t*t); }\n    else if ((l>=650.0)&&(l<700.0)) {  t=(l-650.0)/(700.0-650.0); r=0.65-(0.84*t)+(0.20*t*t); }\n         if ((l>=415.0)&&(l<475.0)) {  t=(l-415.0)/(475.0-415.0); g=             (0.80*t*t); }\n    else if ((l>=475.0)&&(l<590.0)) {  t=(l-475.0)/(590.0-475.0); g=0.8 +(0.76*t)-(0.80*t*t); }\n    else if ((l>=585.0)&&(l<639.0)) {  t=(l-585.0)/(639.0-585.0); g=0.82-(0.80*t)           ; }\n         if ((l>=400.0)&&(l<475.0)) {  t=(l-400.0)/(475.0-400.0); b=    (2.20*t)-(1.50*t*t); }\n    else if ((l>=475.0)&&(l<560.0)) {  t=(l-475.0)/(560.0-475.0); b=0.7 -(     t)+(0.30*t*t); }\n\n\treturn vec(r,g,b);\n}\n\n spectral_palette( x) { return spectral_colour(x*250.0+400.0); }\n\n\n\t //p=(2.0*norm)/max(dim.x,dim.y);\r\np=norm*zoom;\n\tfor( i=1;i<50;i+=1)\n\t{\n\t\tp=p+vec(0.6/(i)*sin((i)*p.y+time+0.3*(i))+1.0, 0.6/(i)*sin((i)*p.x+time+0.3*(i+1))-1.);\n\t}\n\t col=spectral_palette(p.x-48.5);\n\tout1=col;\n",
									"fontface" : 0,
									"fontname" : "Arial",
									"fontsize" : 12.0,
									"id" : "obj-8",
									"maxclass" : "codebox",
									"numinlets" : 1,
									"numoutlets" : 1,
									"outlettype" : [ "" ],
									"patching_rect" : [ 23.0, 107.0, 818.0, 679.0 ],
									"style" : ""
								}

							}
, 							{
								"box" : 								{
									"id" : "obj-1",
									"maxclass" : "newobj",
									"numinlets" : 0,
									"numoutlets" : 1,
									"outlettype" : [ "" ],
									"patching_rect" : [ 23.0, 73.0, 30.0, 22.0 ],
									"style" : "",
									"text" : "in 1"
								}

							}
, 							{
								"box" : 								{
									"id" : "obj-4",
									"maxclass" : "newobj",
									"numinlets" : 1,
									"numoutlets" : 0,
									"patching_rect" : [ 23.0, 990.0, 37.0, 22.0 ],
									"style" : "",
									"text" : "out 1"
								}

							}
 ],
						"lines" : [ 							{
								"patchline" : 								{
									"destination" : [ "obj-8", 0 ],
									"source" : [ "obj-1", 0 ]
								}

							}
, 							{
								"patchline" : 								{
									"destination" : [ "obj-4", 0 ],
									"source" : [ "obj-8", 0 ]
								}

							}
 ]
					}
,
					"patching_rect" : [ 130.0, 439.0, 146.0, 22.0 ],
					"style" : "",
					"text" : "jit.gl.pix @name plasma"
				}

			}
, 			{
				"box" : 				{
					"format" : 6,
					"id" : "obj-8",
					"maxclass" : "flonum",
					"numinlets" : 1,
					"numoutlets" : 2,
					"outlettype" : [ "", "bang" ],
					"parameter_enable" : 0,
					"patching_rect" : [ 144.0, 40.0, 50.0, 22.0 ],
					"presentation" : 1,
					"presentation_rect" : [ 47.999996, 74.666664, 50.0, 22.0 ],
					"style" : ""
				}

			}
, 			{
				"box" : 				{
					"id" : "obj-5",
					"maxclass" : "newobj",
					"numinlets" : 2,
					"numoutlets" : 1,
					"outlettype" : [ "float" ],
					"patching_rect" : [ 144.0, 78.0, 41.0, 22.0 ],
					"style" : "",
					"text" : "/ 100."
				}

			}
, 			{
				"box" : 				{
					"id" : "obj-18",
					"maxclass" : "newobj",
					"numinlets" : 2,
					"numoutlets" : 1,
					"outlettype" : [ "float" ],
					"patching_rect" : [ 109.0, 114.0, 53.0, 22.0 ],
					"style" : "",
					"text" : "+ 0.001"
				}

			}
, 			{
				"box" : 				{
					"id" : "obj-17",
					"maxclass" : "newobj",
					"numinlets" : 2,
					"numoutlets" : 1,
					"outlettype" : [ "float" ],
					"patching_rect" : [ 75.0, 114.0, 27.0, 22.0 ],
					"style" : "",
					"text" : "f"
				}

			}
, 			{
				"box" : 				{
					"id" : "obj-12",
					"linecount" : 5,
					"maxclass" : "newobj",
					"numinlets" : 1,
					"numoutlets" : 2,
					"outlettype" : [ "jit_gl_texture", "" ],
					"patching_rect" : [ 130.0, 329.0, 102.0, 76.0 ],
					"style" : "",
					"text" : "jit.gl.texture @adapt 1 @type float32 @rectangle 1 @dim 1280 720"
				}

			}
, 			{
				"box" : 				{
					"id" : "obj-6",
					"maxclass" : "newobj",
					"numinlets" : 1,
					"numoutlets" : 1,
					"outlettype" : [ "" ],
					"patching_rect" : [ 75.0, 153.0, 81.0, 22.0 ],
					"style" : "",
					"text" : "prepend time"
				}

			}
, 			{
				"box" : 				{
					"id" : "obj-1",
					"linecount" : 5,
					"maxclass" : "newobj",
					"numinlets" : 1,
					"numoutlets" : 3,
					"outlettype" : [ "", "bang", "" ],
					"patching_rect" : [ 96.0, 240.0, 129.0, 76.0 ],
					"style" : "",
					"text" : "jit.world @enable 1 @erase_color 0.34 0.4 0.4 1. @fsaa 1 @high_res 1 @floating 0"
				}

			}
, 			{
				"box" : 				{
					"attr" : "zoom",
					"id" : "obj-16",
					"maxclass" : "attrui",
					"numinlets" : 1,
					"numoutlets" : 1,
					"outlettype" : [ "" ],
					"patching_rect" : [ 292.0, 114.0, 110.0, 22.0 ],
					"presentation" : 1,
					"presentation_rect" : [ 47.999996, 111.666664, 110.0, 22.0 ],
					"style" : "",
					"text_width" : 53.0
				}

			}
, 			{
				"box" : 				{
					"attr" : "x0",
					"id" : "obj-9",
					"maxclass" : "attrui",
					"numinlets" : 1,
					"numoutlets" : 1,
					"outlettype" : [ "" ],
					"patching_rect" : [ 292.0, 145.0, 110.0, 22.0 ],
					"style" : "",
					"text_width" : 54.0
				}

			}
, 			{
				"box" : 				{
					"attr" : "x2",
					"id" : "obj-11",
					"maxclass" : "attrui",
					"numinlets" : 1,
					"numoutlets" : 1,
					"outlettype" : [ "" ],
					"patching_rect" : [ 292.0, 175.0, 110.0, 22.0 ],
					"style" : "",
					"text_width" : 54.0
				}

			}
, 			{
				"box" : 				{
					"attr" : "iter",
					"id" : "obj-13",
					"maxclass" : "attrui",
					"numinlets" : 1,
					"numoutlets" : 1,
					"outlettype" : [ "" ],
					"patching_rect" : [ 292.0, 206.0, 120.0, 22.0 ],
					"style" : "",
					"text_width" : 33.0
				}

			}
 ],
		"lines" : [ 			{
				"patchline" : 				{
					"destination" : [ "obj-12", 0 ],
					"order" : 0,
					"source" : [ "obj-1", 1 ]
				}

			}
, 			{
				"patchline" : 				{
					"destination" : [ "obj-17", 0 ],
					"midpoints" : [ 160.5, 323.0, 61.0, 323.0, 61.0, 105.0, 84.5, 105.0 ],
					"order" : 1,
					"source" : [ "obj-1", 1 ]
				}

			}
, 			{
				"patchline" : 				{
					"destination" : [ "obj-4", 0 ],
					"source" : [ "obj-11", 0 ]
				}

			}
, 			{
				"patchline" : 				{
					"destination" : [ "obj-4", 0 ],
					"source" : [ "obj-12", 0 ]
				}

			}
, 			{
				"patchline" : 				{
					"destination" : [ "obj-4", 0 ],
					"source" : [ "obj-16", 0 ]
				}

			}
, 			{
				"patchline" : 				{
					"destination" : [ "obj-18", 0 ],
					"order" : 0,
					"source" : [ "obj-17", 0 ]
				}

			}
, 			{
				"patchline" : 				{
					"destination" : [ "obj-6", 0 ],
					"order" : 1,
					"source" : [ "obj-17", 0 ]
				}

			}
, 			{
				"patchline" : 				{
					"destination" : [ "obj-17", 1 ],
					"source" : [ "obj-18", 0 ]
				}

			}
, 			{
				"patchline" : 				{
					"destination" : [ "obj-1", 0 ],
					"midpoints" : [ 139.5, 462.0, 81.0, 462.0, 81.0, 234.0, 105.5, 234.0 ],
					"source" : [ "obj-4", 0 ]
				}

			}
, 			{
				"patchline" : 				{
					"destination" : [ "obj-18", 1 ],
					"source" : [ "obj-5", 0 ]
				}

			}
, 			{
				"patchline" : 				{
					"destination" : [ "obj-4", 0 ],
					"source" : [ "obj-6", 0 ]
				}

			}
, 			{
				"patchline" : 				{
					"destination" : [ "obj-5", 0 ],
					"source" : [ "obj-8", 0 ]
				}

			}
, 			{
				"patchline" : 				{
					"destination" : [ "obj-4", 0 ],
					"source" : [ "obj-9", 0 ]
				}

			}
 ],
		"dependency_cache" : [  ],
		"autosave" : 0,
		"patchlinecolor" : [ 0.52549, 0.062745, 0.003922, 0.26 ]
	}

}
